<?xml version="1.0" encoding="UTF-8"?>
<svg version="1.1" xmlns="http://www.w3.org/2000/svg" width="589" height="520">
<path d="M0 0 C1.21574166 2.43148333 0.96497901 3.51820532 0.625 6.1875 C0.52574219 6.99445313 0.42648437 7.80140625 0.32421875 8.6328125 C0.05302317 10.61286695 -0.25080254 12.58841607 -0.5625 14.5625 C-1.76149323 23.98316108 -0.37437169 32.62360109 4.1328125 41.140625 C5 43 5 43 5 47 C6.485 47.495 6.485 47.495 8 48 C9.1328125 50.3984375 9.1328125 50.3984375 10.125 53.375 C10.62386719 54.84066406 10.62386719 54.84066406 11.1328125 56.3359375 C11.41898437 57.21507812 11.70515625 58.09421875 12 59 C12.33 59.99 12.66 60.98 13 62 C13.12031873 63.9139072 13.17533219 65.83235319 13.1875 67.75 C13.20167969 68.75546875 13.21585937 69.7609375 13.23046875 70.796875 C13 74 13 74 11 81 C17.27 81.33 23.54 81.66 30 82 C29.46642617 71.75538239 28.35899928 64.78875882 23 56 C19.35019306 48.55001953 17.82029952 42.47048884 17.8125 34.125 C17.80025391 33.44308594 17.78800781 32.76117188 17.77539062 32.05859375 C17.76208022 27.39995341 18.41588445 23.43552355 20 19 C22 17 22 17 25.5 16.75 C29 17 29 17 31 19 C31.17944336 20.90429688 31.17944336 20.90429688 31.08984375 23.21875 C31.05612671 24.485979 31.05612671 24.485979 31.02172852 25.77880859 C30.99393311 26.67680176 30.9661377 27.57479492 30.9375 28.5 C30.78939437 40.09718164 33.2264442 47.63209232 38.50415039 57.89331055 C42.94364178 66.64668121 43.33550037 73.34469325 42 83 C42.54785156 82.96519531 43.09570312 82.93039063 43.66015625 82.89453125 C54.99258314 82.50757033 65.74657626 85.41838609 76.4375 88.875 C77.17033203 89.10719238 77.90316406 89.33938477 78.65820312 89.57861328 C85.59876637 91.92207776 91.83924876 95.34933105 96.9375 100.6875 C97.50339844 101.26886719 98.06929687 101.85023438 98.65234375 102.44921875 C103.52623455 108.05772498 102.13076851 118.04020931 102 125 C102.6290625 124.97679687 103.258125 124.95359375 103.90625 124.9296875 C115.27545036 124.68997544 124.35519547 128.07295879 134 134 C138 138.30322581 138 138.30322581 138 141 C138.99 141.33 139.98 141.66 141 142 C142.31640625 144.0390625 142.31640625 144.0390625 143.5625 146.625 C143.97628906 147.46289062 144.39007813 148.30078125 144.81640625 149.1640625 C147.31276636 155.1454402 148.37409891 160.77815481 148.6875 167.1875 C148.72584961 167.9307251 148.76419922 168.6739502 148.80371094 169.43969727 C149.60006558 187.71445928 145.41161132 202.35207583 133 216 C129.44444444 219 129.44444444 219 127 219 C126.67 219.99 126.34 220.98 126 222 C118.24278249 226.52280675 110.00658196 229.36761559 101 229 C100.88591797 230.45986328 100.88591797 230.45986328 100.76953125 231.94921875 C100.08157371 236.73359599 97.96879288 240.60397089 95.6875 244.8125 C95.29626953 245.57498047 94.90503906 246.33746094 94.50195312 247.12304688 C94.11330078 247.85201172 93.72464844 248.58097656 93.32421875 249.33203125 C92.97447998 249.98921143 92.62474121 250.6463916 92.2644043 251.32348633 C90.74936334 253.33232708 89.29965495 254.04435821 87 255 C87 255.66 87 256.32 87 257 C86.34 257 85.68 257 85 257 C85 257.66 85 258.32 85 259 C84.34 259 83.68 259 83 259 C82.67 259.99 82.34 260.98 82 262 C55.68507878 280.57006147 19.43264442 282.65252079 -11.5625 277.75 C-20.5984526 276.16150544 -29.15609005 273.86520997 -37 269 C-37.75539063 268.5978125 -38.51078125 268.195625 -39.2890625 267.78125 C-55.22117241 259.04256764 -62.82105931 245.99090927 -68 229 C-69.06691059 223.76815745 -69.30856005 218.57328821 -69.53515625 213.25390625 C-69.5784053 212.27837296 -69.62165436 211.30283966 -69.66621399 210.29774475 C-70.6906703 186.4475112 -71.25677171 162.60546826 -71.36289597 138.7349968 C-71.37498314 136.62793865 -71.39458724 134.52107239 -71.41629028 132.41409302 C-71.45573674 128.45569001 -71.46047515 124.4976721 -71.4609375 120.5390625 C-71.47522293 119.35691666 -71.48950836 118.17477081 -71.50422668 116.95680237 C-71.46936557 110.66661341 -71.28846144 106.74986877 -67 102 C-56.78130636 93.0696736 -44.90686935 89.93098968 -32 87 C-31.14664063 86.80535156 -30.29328125 86.61070312 -29.4140625 86.41015625 C-20.6872553 84.55762349 -11.81431677 83.35744098 -3 82 C-0.36407753 73.19869955 1.4862339 65.72787147 -2.6875 57.1875 C-3.45281251 55.78863207 -4.22438811 54.39318374 -5 53 C-6.05184708 50.96355949 -7.09290654 48.92152274 -8.125 46.875 C-8.62257813 45.90304688 -9.12015625 44.93109375 -9.6328125 43.9296875 C-13.07608384 36.55124892 -13.36599078 30.21921754 -13.375 22.1875 C-13.39949219 21.04990234 -13.42398438 19.91230469 -13.44921875 18.74023438 C-13.47324357 11.80106661 -12.90119938 5.91486695 -9 0 C-5.88173308 -1.55913346 -3.32926126 -0.66585225 0 0 Z M103 158 C103 170.21 103 182.42 103 195 C108.54874202 193.48778522 108.54874202 193.48778522 112 190 C115.91367305 181.51819353 117.95810128 172.48268359 114.75 163.5 C112.95324996 160.93321422 111.78478761 159.43217649 109 158 C107.02 158 105.04 158 103 158 Z " fill="#4B3115" transform="translate(320,127)"/>
<path d="M0 0 C1.21574166 2.43148333 0.96497901 3.51820532 0.625 6.1875 C0.52574219 6.99445313 0.42648437 7.80140625 0.32421875 8.6328125 C0.05302317 10.61286695 -0.25080254 12.58841607 -0.5625 14.5625 C-1.76149323 23.98316108 -0.37437169 32.62360109 4.1328125 41.140625 C5 43 5 43 5 47 C6.485 47.495 6.485 47.495 8 48 C9.1328125 50.3984375 9.1328125 50.3984375 10.125 53.375 C10.62386719 54.84066406 10.62386719 54.84066406 11.1328125 56.3359375 C11.41898437 57.21507812 11.70515625 58.09421875 12 59 C12.33 59.99 12.66 60.98 13 62 C13.12031873 63.9139072 13.17533219 65.83235319 13.1875 67.75 C13.20167969 68.75546875 13.21585937 69.7609375 13.23046875 70.796875 C13 74 13 74 11 81 C17.27 81.33 23.54 81.66 30 82 C29.46642617 71.75538239 28.35899928 64.78875882 23 56 C19.35019306 48.55001953 17.82029952 42.47048884 17.8125 34.125 C17.80025391 33.44308594 17.78800781 32.76117188 17.77539062 32.05859375 C17.76208022 27.39995341 18.41588445 23.43552355 20 19 C22 17 22 17 25.5 16.75 C29 17 29 17 31 19 C31.17944336 20.90429688 31.17944336 20.90429688 31.08984375 23.21875 C31.05612671 24.485979 31.05612671 24.485979 31.02172852 25.77880859 C30.99393311 26.67680176 30.9661377 27.57479492 30.9375 28.5 C30.78939437 40.09718164 33.2264442 47.63209232 38.50415039 57.89331055 C42.94364178 66.64668121 43.33550037 73.34469325 42 83 C42.54785156 82.96519531 43.09570312 82.93039063 43.66015625 82.89453125 C54.99258314 82.50757033 65.74657626 85.41838609 76.4375 88.875 C77.17033203 89.10719238 77.90316406 89.33938477 78.65820312 89.57861328 C85.59876637 91.92207776 91.83924876 95.34933105 96.9375 100.6875 C97.50339844 101.26886719 98.06929687 101.85023438 98.65234375 102.44921875 C103.52623455 108.05772498 102.13076851 118.04020931 102 125 C102.6290625 124.97679687 103.258125 124.95359375 103.90625 124.9296875 C115.27545036 124.68997544 124.35519547 128.07295879 134 134 C138 138.30322581 138 138.30322581 138 141 C138.99 141.33 139.98 141.66 141 142 C142.31640625 144.0390625 142.31640625 144.0390625 143.5625 146.625 C143.97628906 147.46289062 144.39007813 148.30078125 144.81640625 149.1640625 C147.31276636 155.1454402 148.37409891 160.77815481 148.6875 167.1875 C148.72584961 167.9307251 148.76419922 168.6739502 148.80371094 169.43969727 C149.35307721 182.04656546 148.20436411 195.19345384 141 206 C140.01 206.66 139.02 207.32 138 208 C140 202 142 196 144 190 C144.66 190 145.32 190 146 190 C146.05826088 185.6250563 146.09368457 181.25021302 146.125 176.875 C146.15013672 175.01875 146.15013672 175.01875 146.17578125 173.125 C146.18544922 171.32675781 146.18544922 171.32675781 146.1953125 169.4921875 C146.21102295 167.84259033 146.21102295 167.84259033 146.22705078 166.15966797 C145.98620007 162.80795844 145.13054781 160.14989803 144 157 C143.875 154.125 143.875 154.125 144 152 C143.34 152 142.68 152 142 152 C142 151.01 142 150.02 142 149 C141.34 149 140.68 149 140 149 C140.20625 149.680625 140.4125 150.36125 140.625 151.0625 C141.10063829 154.78833331 140.17669149 157.46992554 139 161 C137.92040428 158.87038652 136.87879307 156.73462062 135.88671875 154.5625 C133.53525372 149.53787114 131.68272846 146.2110138 127 143 C127 142.34 127 141.68 127 141 C118.56318029 136.63477774 110.49862376 134.3674516 101 134 C101 133.67 101 133.34 101 133 C103.97 133 106.94 133 110 133 C110 131.68 110 130.36 110 129 C108.37509046 128.97301811 106.75005367 128.95361243 105.125 128.9375 C104.22007812 128.92589844 103.31515625 128.91429687 102.3828125 128.90234375 C99.9831415 128.83750743 99.9831415 128.83750743 98 130 C97.67 129.34 97.34 128.68 97 128 C96.01 128 95.02 128 94 128 C94 142.19 94 156.38 94 171 C93.34 171 92.68 171 92 171 C92 156.15 92 141.3 92 126 C87.71 128.31 83.42 130.62 79 133 C73.81178609 135.50927732 68.95071733 136.8240198 63.32421875 137.82421875 C62.07969437 138.05172569 62.07969437 138.05172569 60.81002808 138.28382874 C28.02851963 144.15504433 -26.51803881 151.71907434 -56.39746094 131.87011719 C-57.25629883 131.25297852 -58.11513672 130.63583984 -59 130 C-58.2575 129.4121875 -58.2575 129.4121875 -57.5 128.8125 C-55.54406857 126.44908285 -55.75792027 124.98564997 -56 122 C-55.2575 122.495 -55.2575 122.495 -54.5 123 C-50.90909106 124.43636358 -47.85543873 124.12851462 -44 124 C-43.67 123.34 -43.34 122.68 -43 122 C-34.11359687 118.69933598 -24.59960477 116.91531522 -15.26611328 115.38012695 C-13.61998051 115.10399802 -11.97808338 114.80223691 -10.33935547 114.48510742 C-0.00111606 112.63525533 10.28021438 112.56204615 20.75 112.5625 C21.69766235 112.56076782 22.64532471 112.55903564 23.6217041 112.55725098 C41.17084237 112.57133 59.5738441 112.71700353 75 122 C78.62751384 122.66758785 78.62751384 122.66758785 82 122 C84.22931824 120.18739868 84.22931824 120.18739868 86 118 C88.25 116.75 88.25 116.75 90 116 C90.41890218 113.21061788 90.41890218 113.21061788 90 110 C87.58333229 107.24958334 87.58333229 107.24958334 85 105 C85 104.34 85 103.68 85 103 C78.40096639 100.65347298 71.75909552 98.88379305 64.9375 97.3125 C63.97650391 97.08755859 63.01550781 96.86261719 62.02539062 96.63085938 C59.68444298 96.08347361 57.34267692 95.53992759 55 95 C55 94.34 55 93.68 55 93 C49.06 92.67 43.12 92.34 37 92 C36.34 93.65 35.68 95.3 35 97 C34.34 97.66 33.68 98.32 33 99 C28.44444444 98.44444444 28.44444444 98.44444444 27 97 C26.95936168 95.33382885 26.957279 93.66611905 27 92 C22.66210219 92.09483851 18.32467061 92.20118636 13.98730469 92.31738281 C12.5173274 92.35523906 11.04727104 92.39016 9.57714844 92.421875 C0.5705196 92.61847263 -8.14537982 93.20033479 -17 95 C-18.1125415 95.21970459 -18.1125415 95.21970459 -19.24755859 95.44384766 C-21.18700974 95.83192379 -23.12480596 96.22824362 -25.0625 96.625 C-31.42488042 97.87924094 -37.52113526 98.37061303 -44 98 C-44.33 97.01 -44.66 96.02 -45 95 C-51.78830105 95.65455757 -51.78830105 95.65455757 -57.125 99.375 C-57.74375 100.24125 -58.3625 101.1075 -59 102 C-60.98082699 103.19175012 -62.99150257 104.15547621 -65.09765625 105.10546875 C-67.25228642 106.06136561 -67.25228642 106.06136561 -70 108 C-67.78449083 100.72046986 -61.11822978 97.40106177 -54.8359375 93.73828125 C-47.69428552 90.2501771 -39.70877632 88.75056733 -32 87 C-31.14664063 86.80535156 -30.29328125 86.61070312 -29.4140625 86.41015625 C-20.6872553 84.55762349 -11.81431677 83.35744098 -3 82 C-0.36407753 73.19869955 1.4862339 65.72787147 -2.6875 57.1875 C-3.45281251 55.78863207 -4.22438811 54.39318374 -5 53 C-6.05184708 50.96355949 -7.09290654 48.92152274 -8.125 46.875 C-8.62257813 45.90304688 -9.12015625 44.93109375 -9.6328125 43.9296875 C-13.07608384 36.55124892 -13.36599078 30.21921754 -13.375 22.1875 C-13.39949219 21.04990234 -13.42398438 19.91230469 -13.44921875 18.74023438 C-13.47324357 11.80106661 -12.90119938 5.91486695 -9 0 C-5.88173308 -1.55913346 -3.32926126 -0.66585225 0 0 Z " fill="#4D3115" transform="translate(320,127)"/>
<path d="M0 0 C0 14.85 0 29.7 0 45 C-20.63494695 51.87831565 -20.63494695 51.87831565 -27.5 53.3125 C-32.37972727 54.2621693 -32.37972727 54.2621693 -37 56 C-50.90220959 58.80285003 -64.53625847 59.42120491 -78.68701172 59.28125 C-81.92036299 59.24955533 -85.15322605 59.24020724 -88.38671875 59.234375 C-90.46354762 59.22522201 -92.54037157 59.21485175 -94.6171875 59.203125 C-95.5734201 59.19887512 -96.52965271 59.19462524 -97.51486206 59.19024658 C-102.11711542 59.14089737 -106.47256206 58.93839731 -111 58 C-111 57.34 -111 56.68 -111 56 C-111.7528125 55.96261719 -112.505625 55.92523438 -113.28125 55.88671875 C-146.14747736 53.85252264 -146.14747736 53.85252264 -153 47 C-153.15812505 45.6261359 -153.25118525 44.24467631 -153.31640625 42.86328125 C-153.35838135 41.98559082 -153.40035645 41.10790039 -153.44360352 40.20361328 C-153.48283936 39.2495459 -153.5220752 38.29547852 -153.5625 37.3125 C-153.6049585 36.34038574 -153.64741699 35.36827148 -153.69116211 34.36669922 C-154.10811966 23.91171927 -154.09938272 13.46117824 -154 3 C-151.13872636 3.61579585 -149.38718619 4.34176155 -146.75 5.8125 C-116.02517643 21.17491178 -72.25400109 18.21573334 -39.4375 12.75 C-38.52891235 12.60001556 -37.62032471 12.45003113 -36.6842041 12.29550171 C-34.07621202 11.85587028 -31.47329627 11.39447704 -28.87109375 10.921875 C-28.10681564 10.7893483 -27.34253754 10.65682159 -26.55509949 10.52027893 C-19.13208336 9.10226285 -12.56324444 6.05875443 -6.0625 2.25 C-2.21987952 0 -2.21987952 0 0 0 Z " fill="#F2AC8F" transform="translate(412,253)"/>
<path d="M0 0 C0.45929913 4.89919072 -1.17307654 8.56928376 -3 13 C-3.391875 14.093125 -3.78375 15.18625 -4.1875 16.3125 C-9.88182772 29.00189019 -20.57646499 38.02350153 -33.37890625 43.16796875 C-39.81981976 45.21255083 -46.38648607 46.6476262 -53 48 C-54.07636719 48.22945313 -55.15273438 48.45890625 -56.26171875 48.6953125 C-69.55602567 51.06393431 -85.81190194 52.02922862 -99 49 C-99 48.34 -99 47.68 -99 47 C-100.27875 47.061875 -101.5575 47.12375 -102.875 47.1875 C-115.87852536 47.12664107 -128.46029998 40.31701069 -137.66796875 31.49609375 C-149 19.36683417 -149 19.36683417 -149 11 C-149.66 11 -150.32 11 -151 11 C-151 8.36 -151 5.72 -151 3 C-146.41717094 3.96091577 -141.96727006 5.00375927 -137.50146484 6.41137695 C-119.23710199 11.89481312 -100.44122462 12.74025213 -81.5 12.625 C-80.32799042 12.62301605 -79.15598083 12.6210321 -77.94845581 12.61898804 C-51.67574405 12.52539227 -24.47925025 -0.6441908 0 0 Z " fill="#F1AD8F" transform="translate(413,347)"/>
<path d="M0 0 C1.21574166 2.43148333 0.96497901 3.51820532 0.625 6.1875 C0.52574219 6.99445313 0.42648437 7.80140625 0.32421875 8.6328125 C0.05302317 10.61286695 -0.25080254 12.58841607 -0.5625 14.5625 C-1.76149323 23.98316108 -0.37437169 32.62360109 4.1328125 41.140625 C5 43 5 43 5 47 C6.485 47.495 6.485 47.495 8 48 C9.1328125 50.3984375 9.1328125 50.3984375 10.125 53.375 C10.62386719 54.84066406 10.62386719 54.84066406 11.1328125 56.3359375 C11.41898437 57.21507812 11.70515625 58.09421875 12 59 C12.33 59.99 12.66 60.98 13 62 C13.12031873 63.9139072 13.17533219 65.83235319 13.1875 67.75 C13.20167969 68.75546875 13.21585937 69.7609375 13.23046875 70.796875 C13 74 13 74 11 81 C17.27 81.33 23.54 81.66 30 82 C29.46642617 71.75538239 28.35899928 64.78875882 23 56 C19.35019306 48.55001953 17.82029952 42.47048884 17.8125 34.125 C17.80025391 33.44308594 17.78800781 32.76117188 17.77539062 32.05859375 C17.76208022 27.39995341 18.41588445 23.43552355 20 19 C22 17 22 17 25.5 16.75 C29 17 29 17 31 19 C31.17944336 20.90429688 31.17944336 20.90429688 31.08984375 23.21875 C31.05612671 24.485979 31.05612671 24.485979 31.02172852 25.77880859 C30.99393311 26.67680176 30.9661377 27.57479492 30.9375 28.5 C30.78939437 40.09718164 33.2264442 47.63209232 38.50415039 57.89331055 C42.94364178 66.64668121 43.33550037 73.34469325 42 83 C42.54785156 82.96519531 43.09570312 82.93039063 43.66015625 82.89453125 C54.99258314 82.50757033 65.74657626 85.41838609 76.4375 88.875 C77.17033203 89.10719238 77.90316406 89.33938477 78.65820312 89.57861328 C84.9765727 91.71199556 91.21940398 94.32910597 95 100 C93.35 99.67 91.7 99.34 90 99 C90 98.34 90 97.68 90 97 C89.443125 96.81824219 88.88625 96.63648438 88.3125 96.44921875 C84.41258013 95.16461676 80.56188755 93.84016486 76.75 92.3125 C73.47416853 91.16595899 71.40225552 90.68103854 68 91 C67.67 92.65 67.34 94.3 67 96 C69.64 96 72.28 96 75 96 C75.33 96.99 75.66 97.98 76 99 C68.84404654 98.29843593 61.98144819 96.69214979 55 95 C55 94.34 55 93.68 55 93 C49.06 92.67 43.12 92.34 37 92 C36.34 93.65 35.68 95.3 35 97 C34.34 97.66 33.68 98.32 33 99 C28.44444444 98.44444444 28.44444444 98.44444444 27 97 C26.95936168 95.33382885 26.957279 93.66611905 27 92 C22.66210219 92.09483851 18.32467061 92.20118636 13.98730469 92.31738281 C12.5173274 92.35523906 11.04727104 92.39016 9.57714844 92.421875 C0.5705196 92.61847263 -8.14537982 93.20033479 -17 95 C-18.1125415 95.21970459 -18.1125415 95.21970459 -19.24755859 95.44384766 C-21.18700974 95.83192379 -23.12480596 96.22824362 -25.0625 96.625 C-31.42488042 97.87924094 -37.52113526 98.37061303 -44 98 C-44.33 97.01 -44.66 96.02 -45 95 C-51.78830105 95.65455757 -51.78830105 95.65455757 -57.125 99.375 C-57.74375 100.24125 -58.3625 101.1075 -59 102 C-60.98082699 103.19175012 -62.99150257 104.15547621 -65.09765625 105.10546875 C-67.25228642 106.06136561 -67.25228642 106.06136561 -70 108 C-67.78449083 100.72046986 -61.11822978 97.40106177 -54.8359375 93.73828125 C-47.69428552 90.2501771 -39.70877632 88.75056733 -32 87 C-31.14664063 86.80535156 -30.29328125 86.61070312 -29.4140625 86.41015625 C-20.6872553 84.55762349 -11.81431677 83.35744098 -3 82 C-0.36407753 73.19869955 1.4862339 65.72787147 -2.6875 57.1875 C-3.45281251 55.78863207 -4.22438811 54.39318374 -5 53 C-6.05184708 50.96355949 -7.09290654 48.92152274 -8.125 46.875 C-8.62257813 45.90304688 -9.12015625 44.93109375 -9.6328125 43.9296875 C-13.07608384 36.55124892 -13.36599078 30.21921754 -13.375 22.1875 C-13.39949219 21.04990234 -13.42398438 19.91230469 -13.44921875 18.74023438 C-13.47324357 11.80106661 -12.90119938 5.91486695 -9 0 C-5.88173308 -1.55913346 -3.32926126 -0.66585225 0 0 Z " fill="#49341A" transform="translate(320,127)"/>
<path d="M0 0 C1.48697307 0.01006027 2.97395281 0.01918068 4.4609375 0.02734375 C8.05743323 0.049092 11.653672 0.08344982 15.25 0.125 C16.24 3.095 16.24 3.095 17.25 6.125 C19.65877257 6.01158466 19.65877257 6.01158466 22.25 5.125 C22.806875 3.8565625 22.806875 3.8565625 23.375 2.5625 C25.25 0.125 25.25 0.125 27.6328125 -0.23828125 C32.90607556 -0.2598341 38.06202895 0.20269404 43.25 1.125 C43.25 1.785 43.25 2.445 43.25 3.125 C44.054375 3.14626953 44.054375 3.14626953 44.875 3.16796875 C50.74564371 3.52522832 56.0447033 4.80214001 61.625 6.5625 C62.31464844 6.77994873 63.00429688 6.99739746 63.71484375 7.22143555 C70.76795181 9.51697378 75.14711859 11.82602502 79.25 18.125 C80 21.3125 80 21.3125 79.25 24.125 C74.40789474 28.125 74.40789474 28.125 71.25 28.125 C70.92 29.115 70.59 30.105 70.25 31.125 C65.12122733 31.54367532 62.63595863 30.76237286 58.29321289 28.18066406 C43.8157024 20.70058815 24.83894275 21.6585489 9 21.6875 C8.07070679 21.68745972 7.14141357 21.68741943 6.18395996 21.68737793 C-4.30354793 21.71375054 -14.4223593 22.11925751 -24.75 24.125 C-26.21070225 24.37507592 -27.67161321 24.62393858 -29.1328125 24.87109375 C-36.05569941 26.15016576 -42.85904231 27.55725613 -49.61328125 29.57421875 C-51.75 30.125 -51.75 30.125 -54.75 30.125 C-55.08 31.115 -55.41 32.105 -55.75 33.125 C-64.47512369 33.56865036 -64.47512369 33.56865036 -68.75 30.125 C-71.37739184 27.49760816 -72.58878111 25.81384436 -73.4375 22.1875 C-72.3843273 17.49609435 -69.69953687 15.66202889 -65.75 13.125 C-54.77917687 7.20476923 -43.20533174 4.58913832 -31.01367188 2.52246094 C-29.3907305 2.237501 -27.7725302 1.92501277 -26.15820312 1.59472656 C-17.41887212 -0.08591401 -8.8523999 -0.10543308 0 0 Z " fill="#F1AC8E" transform="translate(331.75,218.875)"/>
<path d="M0 0 C0.94766235 -0.00173218 1.89532471 -0.00346436 2.8717041 -0.00524902 C20.3064941 0.00873827 38.98444327 0.03125195 54.25 9.4375 C57.02138597 10.21235832 57.02138597 10.21235832 59.25 10.4375 C59.25 10.7675 59.25 11.0975 59.25 11.4375 C58.45078125 11.61925781 57.6515625 11.80101562 56.828125 11.98828125 C51.04379682 13.31215918 45.26483399 14.65593594 39.5 16.0625 C38.51515625 16.30226562 37.5303125 16.54203125 36.515625 16.7890625 C34.30112322 17.22462851 34.30112322 17.22462851 33.25 18.4375 C-0.21390751 26.17563393 -38.13623477 22.86753726 -70.75 13.4375 C-70.75 13.1075 -70.75 12.7775 -70.75 12.4375 C-69.2959375 12.251875 -69.2959375 12.251875 -67.8125 12.0625 C-66.801875 11.85625 -65.79125 11.65 -64.75 11.4375 C-64.42 10.7775 -64.09 10.1175 -63.75 9.4375 C-54.86359687 6.13683598 -45.34960477 4.35281522 -36.01611328 2.81762695 C-34.36998051 2.54149802 -32.72808338 2.23973691 -31.08935547 1.92260742 C-20.75111606 0.07275533 -10.46978562 -0.00045385 0 0 Z " fill="#844A21" transform="translate(340.75,239.5625)"/>
<path d="M0 0 C2.71484232 2.6088398 4.99142388 5.25968308 7.1875 8.3125 C14.22495979 17.37341546 22.2455832 21.3972029 33 25 C34.01964844 25.36222656 35.03929687 25.72445313 36.08984375 26.09765625 C38.74862914 26.92205816 41.1124563 27.37385966 43.875 27.625 C44.65617187 27.69976562 45.43734375 27.77453125 46.2421875 27.8515625 C46.82226562 27.90054687 47.40234375 27.94953125 48 28 C48 28.66 48 29.32 48 30 C72.67298284 30.58999422 72.67298284 30.58999422 97 27 C98.25554687 26.76023437 99.51109375 26.52046875 100.8046875 26.2734375 C114.99345368 23.54367487 125.14845714 17.42370827 136 8 C136 8.99 136 9.98 136 11 C136.99 11.33 137.98 11.66 139 12 C139.33 11.01 139.66 10.02 140 9 C140.33 9.66 140.66 10.32 141 11 C140.67 11.66 140.34 12.32 140 13 C141.32 13 142.64 13 144 13 C144 12.01 144 11.02 144 10 C144.99 9.67 145.98 9.34 147 9 C145.52307692 13.67692308 145.52307692 13.67692308 142.875 15.3125 C141.946875 15.6528125 141.946875 15.6528125 141 16 C141 16.66 141 17.32 141 18 C140.34 18 139.68 18 139 18 C139 18.66 139 19.32 139 20 C138.34 20 137.68 20 137 20 C136.67 20.99 136.34 21.98 136 23 C109.68507878 41.57006147 73.43264442 43.65252079 42.4375 38.75 C33.4015474 37.16150544 24.84390995 34.86520997 17 30 C16.24460937 29.5978125 15.48921875 29.195625 14.7109375 28.78125 C5.12006338 23.52070366 -5.49751998 14.77686161 -9 4 C-8.67 3.01 -8.34 2.02 -8 1 C-7.54625 1.474375 -7.0925 1.94875 -6.625 2.4375 C-5.06741796 4.09027808 -5.06741796 4.09027808 -3 5 C-2.814375 4.0409375 -2.814375 4.0409375 -2.625 3.0625 C-2.41875 2.381875 -2.2125 1.70125 -2 1 C-1.34 0.67 -0.68 0.34 0 0 Z " fill="#4E361E" transform="translate(266,366)"/>
<path d="M0 0 C11.36098635 -0.74743331 19.70904992 1.87902717 28.5 9.25 C34.21546325 14.74528489 37.66951301 21.45226217 38.14526367 29.43847656 C38.16994456 32.37576733 38.18565721 35.31259771 38.1875 38.25 C38.19974609 39.26191406 38.21199219 40.27382813 38.22460938 41.31640625 C38.24992346 54.3278441 34.16462508 65.43156089 25.17578125 75.078125 C18.10703585 81.32197193 10.62127533 86 1 86 C1 81.38 1 76.76 1 72 C11.75 66 11.75 66 14 66 C14.41958984 65.14148438 14.41958984 65.14148438 14.84765625 64.265625 C15.97599794 62.04719048 17.19325507 59.90514076 18.4375 57.75 C23.50683475 48.51121241 26.07673683 39.99015695 23.30859375 29.33984375 C20.98976965 23.5282302 17.65611955 19.82805978 12 17 C9.9625237 16.77141886 7.91959697 16.58975722 5.875 16.4375 C3.93625 16.293125 1.9975 16.14875 0 16 C0 10.72 0 5.44 0 0 Z " fill="#ECA98A" transform="translate(421,261)"/>
<path d="M0 0 C0 2.31 0 4.62 0 7 C-1.43554025 7.50559908 -2.8735202 8.0042749 -4.3125 8.5 C-5.11300781 8.7784375 -5.91351563 9.056875 -6.73828125 9.34375 C-9 10 -9 10 -12 10 C-12 10.66 -12 11.32 -12 12 C-47.85426742 24.5489936 -88.96830196 26.28821741 -126 18 C-127.64171776 17.66044472 -129.28363862 17.32186956 -130.92578125 16.984375 C-138.56496659 15.35322075 -145.88438935 13.2868177 -153 10 C-153 7.36 -153 4.72 -153 2 C-148.90355546 1.60356988 -145.79738626 2.72694324 -141.97265625 4.07421875 C-120.68531599 10.70378464 -98.55545222 12.18750551 -76.40209961 12.18530273 C-73.93651332 12.18750088 -71.47136791 12.20578123 -69.00585938 12.22460938 C-59.54131138 12.25783906 -50.30275998 11.97127096 -41 10 C-40.67 9.67 -40.34 9.34 -40 9 C-37.00348706 8.38378161 -34.0075506 7.80720923 -31 7.25 C-23.2796665 5.77654228 -15.79113157 3.93612553 -8.29492188 1.57519531 C-5.40376274 0.66975364 -3.05223301 0 0 0 Z " fill="#EBAB8D" transform="translate(413,319)"/>
<path d="M0 0 C5.14581303 1.36212698 8.17033884 4.65178168 11 9 C14.62949375 17.96915573 13.96694908 27.47802211 10.35546875 36.34375 C8.03366218 40.89368794 5.1163912 44.96444847 2 49 C1.34 48.34 0.68 47.68 0 47 C-0.45375 47.495 -0.9075 47.99 -1.375 48.5 C-3 50 -3 50 -5 50 C-5.45375 49.525625 -5.9075 49.05125 -6.375 48.5625 C-8.1308406 46.61483273 -8.1308406 46.61483273 -12 46 C-12 32.8 -12 19.6 -12 6 C-3.87502997 6 -2.96406534 6.02395644 3 10 C3.33 8.02 3.66 6.04 4 4 C3.01 3.67 2.02 3.34 1 3 C0.67 2.01 0.34 1.02 0 0 Z M-10 7 C-10 19.21 -10 31.42 -10 44 C-4.45125798 42.48778522 -4.45125798 42.48778522 -1 39 C2.91367305 30.51819353 4.95810128 21.48268359 1.75 12.5 C-0.04675004 9.93321422 -1.21521239 8.43217649 -4 7 C-5.98 7 -7.96 7 -10 7 Z " fill="#70614D" transform="translate(433,278)"/>
<path d="M0 0 C0.495 1.485 0.495 1.485 1 3 C1.99 3.33 2.98 3.66 4 4 C4.33 3.01 4.66 2.02 5 1 C5.495 1.99 5.495 1.99 6 3 C5.67 3.66 5.34 4.32 5 5 C6.32 5 7.64 5 9 5 C9 4.01 9 3.02 9 2 C9.99 1.67 10.98 1.34 12 1 C10.52307692 5.67692308 10.52307692 5.67692308 7.875 7.3125 C6.946875 7.6528125 6.946875 7.6528125 6 8 C6 8.66 6 9.32 6 10 C5.34 10 4.68 10 4 10 C4 10.66 4 11.32 4 12 C3.34 12 2.68 12 2 12 C1.67 12.99 1.34 13.98 1 15 C-10.69251003 23.25123617 -25.43987424 30.40862982 -40 30 C-40 29.67 -40 29.34 -40 29 C-39.443125 28.89042969 -38.88625 28.78085937 -38.3125 28.66796875 C-32.96064228 27.55601183 -28.07999535 26.01448091 -23 24 C-22.01 23.67 -21.02 23.34 -20 23 C-28.13567836 20.17019883 -35.46569106 20.45402345 -43.75 22.5546875 C-47.51819946 23.30047698 -51.1706017 23.1215682 -55 23 C-55 22.67 -55 22.34 -55 22 C-53.40285156 21.72736328 -53.40285156 21.72736328 -51.7734375 21.44921875 C-23.11214684 16.76468657 -23.11214684 16.76468657 0 0 Z " fill="#614A34" transform="translate(401,374)"/>
<path d="M0 0 C0.66 0.66 1.32 1.32 2 2 C3.6752357 1.71281674 5.34080104 1.36871088 7 1 C9.33301986 0.96175377 11.66711508 0.95425716 14 1 C13.67 2.65 13.34 4.3 13 6 C10.03 6 7.06 6 4 6 C4 11.61 4 17.22 4 23 C7.96 23 11.92 23 16 23 C16.33 24.32 16.66 25.64 17 27 C18.32 27.33 19.64 27.66 21 28 C20.67 30.31 20.34 32.62 20 35 C19.27296875 34.566875 19.27296875 34.566875 18.53125 34.125 C13.37726012 31.27048253 9.88839019 30.32428309 4 31 C-0.2232788 32.83620817 -0.86911399 33.73822797 -3 38 C-3 25.79 -3 13.58 -3 1 C-2.01 0.67 -1.02 0.34 0 0 Z " fill="#472F14" transform="translate(417,254)"/>
<path d="M0 0 C0.66 0 1.32 0 2 0 C2 0.99 2 1.98 2 3 C2.66 3 3.32 3 4 3 C8.56663398 15.09614358 7.78756951 28.38610223 6 41 C5.34 41 4.68 41 4 41 C3.90203125 41.54527344 3.8040625 42.09054687 3.703125 42.65234375 C2.54000257 48.51809047 0.61460097 53.63118344 -2 59 C-2.99 59 -3.98 59 -5 59 C-6.65221506 56.47308285 -7.0051473 55.12096146 -6.875 52.0625 C-6 49 -6 49 -3.98120117 46.85424805 C-1.26922103 42.947192 -1.41467978 39.91811989 -1.42578125 35.26953125 C-1.41161667 34.43789963 -1.39745209 33.60626801 -1.38285828 32.74943542 C-1.34105855 30.10365736 -1.32573392 27.45856137 -1.3125 24.8125 C-1.28344538 22.15604344 -1.24893056 19.49975926 -1.21000671 16.84342957 C-1.18751522 15.19304712 -1.17169829 13.54255769 -1.16316223 11.89204407 C-1.10956121 6.21912242 -1.10956121 6.21912242 0 4 C0 2.68 0 1.36 0 0 Z " fill="#472F16" transform="translate(460,276)"/>
<path d="M0 0 C5.6388885 -0.52146461 9.25432358 1.17083324 14.125 3.6875 C15.17880859 4.19700195 15.17880859 4.19700195 16.25390625 4.71679688 C20.49859719 6.86321432 23.37036643 8.8920491 26 13 C26 13.66 26 14.32 26 15 C26.99 15.33 27.98 15.66 29 16 C30.31640625 18.0390625 30.31640625 18.0390625 31.5625 20.625 C31.97628906 21.46289062 32.39007813 22.30078125 32.81640625 23.1640625 C35.31276636 29.1454402 36.37409891 34.77815481 36.6875 41.1875 C36.72584961 41.9307251 36.76419922 42.6739502 36.80371094 43.43969727 C37.35307721 56.04656546 36.20436411 69.19345384 29 80 C27.515 80.99 27.515 80.99 26 82 C28 76 30 70 32 64 C32.66 64 33.32 64 34 64 C34.05826088 59.6250563 34.09368457 55.25021302 34.125 50.875 C34.14175781 49.6375 34.15851563 48.4 34.17578125 47.125 C34.18222656 45.92617188 34.18867188 44.72734375 34.1953125 43.4921875 C34.20578613 42.39245605 34.21625977 41.29272461 34.22705078 40.15966797 C33.98620007 36.80795844 33.13054781 34.14989803 32 31 C31.875 28.125 31.875 28.125 32 26 C31.34 26 30.68 26 30 26 C30 25.01 30 24.02 30 23 C29.34 23 28.68 23 28 23 C28.20625 23.680625 28.4125 24.36125 28.625 25.0625 C29.10063829 28.78833331 28.17669149 31.46992554 27 35 C25.92040428 32.87038652 24.87879307 30.73462062 23.88671875 28.5625 C21.53525372 23.53787114 19.68272846 20.2110138 15 17 C15 16.34 15 15.68 15 15 C14.01 14.67 13.02 14.34 12 14 C13.32 13.34 14.64 12.68 16 12 C16.33 13.32 16.66 14.64 17 16 C17.66 16 18.32 16 19 16 C20.12516085 14.16715557 20.12516085 14.16715557 21 12 C20.32116769 8.86553552 20.32116769 8.86553552 17.8125 7.71875 C11.94372931 5.17561604 6.10830022 2.90258532 0 1 C0 0.67 0 0.34 0 0 Z " fill="#69533B" transform="translate(432,253)"/>
<path d="M0 0 C0.33 0 0.66 0 1 0 C1.03738281 0.83402344 1.07476562 1.66804687 1.11328125 2.52734375 C1.52187175 9.52145176 2.35652927 15.51775003 5 22 C5.53753906 23.33804688 5.53753906 23.33804688 6.0859375 24.703125 C6.79006872 26.45096845 7.50398207 28.19492339 8.23046875 29.93359375 C9 32 9 32 9 34 C9.639375 34.144375 10.27875 34.28875 10.9375 34.4375 C13 35 13 35 14 36 C14.23678716 38.69235776 14.42198025 41.36498156 14.5625 44.0625 C14.60568359 44.82111328 14.64886719 45.57972656 14.69335938 46.36132812 C14.79973633 48.24065438 14.90039934 50.12030244 15 52 C14.34 52 13.68 52 13 52 C13.020625 52.804375 13.04125 53.60875 13.0625 54.4375 C13 57 13 57 12 58 C10.36527118 58.08700342 8.72685945 58.10701063 7.08984375 58.09765625 C6.10048828 58.09443359 5.11113281 58.09121094 4.09179688 58.08789062 C3.05087891 58.07951172 2.00996094 58.07113281 0.9375 58.0625 C-0.10728516 58.05798828 -1.15207031 58.05347656 -2.22851562 58.04882812 C-4.81903454 58.03699927 -7.40952422 58.01906319 -10 58 C-10 52.06 -10 46.12 -10 40 C-10.66 39.67 -11.32 39.34 -12 39 C-11.34 37.35 -10.68 35.7 -10 34 C-9.34 34 -8.68 34 -8 34 C-8.45375 32.96875 -8.9075 31.9375 -9.375 30.875 C-10.76707361 27.63562492 -11.93380878 24.36260307 -13 21 C-12.01 21.33 -11.02 21.66 -10 22 C-8.8671875 24.3984375 -8.8671875 24.3984375 -7.875 27.375 C-7.54242188 28.35210937 -7.20984375 29.32921875 -6.8671875 30.3359375 C-6.43792969 31.65464844 -6.43792969 31.65464844 -6 33 C-5.67 33.99 -5.34 34.98 -5 36 C-4.87968127 37.9139072 -4.82466781 39.83235319 -4.8125 41.75 C-4.79832031 42.75546875 -4.78414063 43.7609375 -4.76953125 44.796875 C-5 48 -5 48 -7 55 C-0.73 55.33 5.54 55.66 12 56 C11.46642617 45.75538239 10.35899928 38.78875882 5 30 C1.24867147 22.34279382 -0.16217862 16.26752848 -0.0625 7.6875 C-0.05798828 6.94693359 -0.05347656 6.20636719 -0.04882812 5.44335938 C-0.03712175 3.62887101 -0.01918898 1.81442466 0 0 Z " fill="#998C7A" transform="translate(338,153)"/>
<path d="M0 0 C2.28054156 1.69201471 3.77433633 3.11359312 4.48828125 5.91796875 C5.16143429 11.59455785 5.08038887 17.2923899 5 23 C8.3 23 11.6 23 15 23 C15.33 23.66 15.66 24.32 16 25 C18.01848686 25.6962317 20.06657024 26.30764237 22.125 26.875 C27.28482569 28.40593729 31.63821692 29.82779412 36 33 C36.9375 35.25 36.9375 35.25 37 37 C36.34 37 35.68 37 35 37 C34.67 38.32 34.34 39.64 34 41 C33.01 40.67 32.02 40.34 31 40 C30.67 39.01 30.34 38.02 30 37 C28.824375 36.896875 27.64875 36.79375 26.4375 36.6875 C23.39313576 36.32026026 21.5548914 35.79844139 18.6875 34.5 C13.82959976 32.52390499 9.19878134 32.27263049 4 32 C4 31.67 4 31.34 4 31 C6.97 31 9.94 31 13 31 C13 29.68 13 28.36 13 27 C11.906875 27.04125 10.81375 27.0825 9.6875 27.125 C6 27 6 27 3 25 C1.79836456 21.39509368 1.68410417 17.94799822 1.5 14.1875 C1.26163598 9.39814879 0.88931697 4.72079092 0 0 Z " fill="#503A22" transform="translate(417,229)"/>
<path d="M0 0 C0.33 0 0.66 0 1 0 C1.31365795 4.93633064 1.60029055 9.87387587 1.875 14.8125 C1.92012726 15.61968475 1.96525452 16.42686951 2.01174927 17.2585144 C2.74749725 30.76630409 3.16151381 44.27399412 3.47265625 57.796875 C3.51210206 59.47039438 3.55161243 61.14391224 3.59118652 62.81742859 C3.76911617 70.41191878 3.93880718 78.00631553 4.07889271 85.60160637 C4.14110794 88.83179685 4.21428499 92.06168279 4.2897625 95.29158783 C4.32252774 96.80031373 4.35056692 98.30915154 4.37330818 99.81806183 C4.50745108 108.59993045 5.29593881 116.69734936 7.46461487 125.22117615 C8 128 8 128 7 131 C2.33129169 122.93586746 1.71193096 113.99778867 1.3671875 104.86328125 C1.30470825 103.40806313 1.30470825 103.40806313 1.2409668 101.92344666 C1.1085293 98.72011473 0.99057462 95.51648213 0.875 92.3125 C0.83264221 91.20781372 0.79028442 90.10312744 0.74664307 88.96496582 C-0.36969068 59.31898772 -0.19550663 29.66114857 0 0 Z " fill="#8B7F71" transform="translate(249,235)"/>
<path d="M0 0 C0.33 0 0.66 0 1 0 C1.63517359 8.09846329 1.63517359 8.09846329 -0.9375 11.75 C-1.618125 12.4925 -2.29875 13.235 -3 14 C-3.78946609 16.68507329 -3.78946609 16.68507329 -4 19 C-3.67 19 -3.34 19 -3 19 C-3 20.65 -3 22.3 -3 24 C-2.01 24 -1.02 24 0 24 C-1.36439152 29.15436796 -4.72573615 32.06648401 -9 35 C-9.66 35 -10.32 35 -11 35 C-11.33 35.99 -11.66 36.98 -12 38 C-14.43359375 39.38671875 -14.43359375 39.38671875 -17.4375 40.6875 C-18.42621094 41.12449219 -19.41492188 41.56148438 -20.43359375 42.01171875 C-23 43 -23 43 -25 43 C-24.67 42.01 -24.34 41.02 -24 40 C-22.35 40 -20.7 40 -19 40 C-19.185625 39.401875 -19.37125 38.80375 -19.5625 38.1875 C-20 36 -20 36 -19 33 C-19.66 32.67 -20.32 32.34 -21 32 C-21.33 32.99 -21.66 33.98 -22 35 C-24.70879335 36.35439668 -27.00933268 36.06501451 -30 36 C-27.47696357 34.31797572 -24.94055628 32.81837212 -22.3125 31.3125 C-13.75458491 26.14781072 -8.3509789 21.03283072 -4 12 C-3.4225 10.948125 -2.845 9.89625 -2.25 8.8125 C-0.93356555 5.85052249 -0.38193358 3.20824208 0 0 Z " fill="#5A3E22" transform="translate(458,311)"/>
<path d="M0 0 C-0.00523682 0.59425781 -0.01047363 1.18851563 -0.01586914 1.80078125 C-0.03685591 4.5338431 -0.04972845 7.2668879 -0.0625 10 C-0.07087891 10.93457031 -0.07925781 11.86914062 -0.08789062 12.83203125 C-0.10708892 18.32274401 0.1865807 23.56866481 1 29 C0.34 29 -0.32 29 -1 29 C-1.66 31.64 -2.32 34.28 -3 37 C-5.73257397 34.26742603 -6.0682248 31.65374533 -7.0625 27.9375 C-7.8992433 23.65050646 -7.8992433 23.65050646 -10 20 C-10.12635423 17.91956287 -10.17581705 15.83423788 -10.1875 13.75 C-10.20167969 12.61046875 -10.21585937 11.4709375 -10.23046875 10.296875 C-10.00195748 7.02800186 -9.53638086 4.87880002 -8 2 C-4.77208445 -0.1519437 -3.71599191 -0.20086443 0 0 Z " fill="#443119" transform="translate(349,146)"/>
<path d="M0 0 C3.5 0.25 3.5 0.25 5.5 2.25 C5.67944336 4.15429688 5.67944336 4.15429688 5.58984375 6.46875 C5.56736572 7.31356934 5.5448877 8.15838867 5.52172852 9.02880859 C5.49393311 9.92680176 5.4661377 10.82479492 5.4375 11.75 C5.28939437 23.34718164 7.7264442 30.88209232 13.00415039 41.14331055 C17.44364178 49.89668121 17.83550037 56.59469325 16.5 66.25 C17.04785156 66.21519531 17.59570312 66.18039063 18.16015625 66.14453125 C27.68321195 65.81935374 37.74146341 67.41292683 46.5 71.25 C43.58258594 72.13734283 41.51423514 72.28297323 38.5234375 71.7265625 C37.77433105 71.59290283 37.02522461 71.45924316 36.25341797 71.3215332 C35.46854004 71.17417725 34.68366211 71.02682129 33.875 70.875 C27.4199513 69.72476871 21.04146893 68.77753782 14.5 68.25 C14.46261719 67.13882813 14.42523438 66.02765625 14.38671875 64.8828125 C13.96443465 54.54325039 13.56784413 45.40455032 7.4375 36.6875 C0.98693644 27.49984868 1.48579968 15.67190661 3 4.875 C3.165 4.00875 3.33 3.1425 3.5 2.25 C0.86 2.91 -1.78 3.57 -4.5 4.25 C-4.83 5.9 -5.16 7.55 -5.5 9.25 C-5.83 9.25 -6.16 9.25 -6.5 9.25 C-5.516 0.394 -5.516 0.394 0 0 Z " fill="#A19786" transform="translate(345.5,143.75)"/>
<path d="M0 0 C0.66 0.33 1.32 0.66 2 1 C1 4 1 4 -1 5 C-1 6.32 -1 7.64 -1 9 C2.465 8.505 2.465 8.505 6 8 C-0.32526076 15.35393638 -12.74227009 18.50300538 -22 20 C-23.999559 20.04199774 -26.00070239 20.05300053 -28 20 C-28 19.67 -28 19.34 -28 19 C-27.443125 18.89042969 -26.88625 18.78085937 -26.3125 18.66796875 C-20.96064228 17.55601183 -16.07999535 16.01448091 -11 14 C-10.01 13.67 -9.02 13.34 -8 13 C-16.13567836 10.17019883 -23.46569106 10.45402345 -31.75 12.5546875 C-35.51819946 13.30047698 -39.1706017 13.1215682 -43 13 C-43 12.67 -43 12.34 -43 12 C-41.93523437 11.81824219 -40.87046875 11.63648438 -39.7734375 11.44921875 C-18.94626949 8.47098444 -18.94626949 8.47098444 0 0 Z " fill="#6A4A30" transform="translate(389,384)"/>
<path d="M0 0 C0 2.31 0 4.62 0 7 C-1.43554025 7.50559908 -2.8735202 8.0042749 -4.3125 8.5 C-5.11300781 8.7784375 -5.91351563 9.056875 -6.73828125 9.34375 C-9 10 -9 10 -12 10 C-12 10.66 -12 11.32 -12 12 C-13.4117783 12.53394179 -14.82970244 13.05165104 -16.25 13.5625 C-17.03890625 13.85253906 -17.8278125 14.14257812 -18.640625 14.44140625 C-21.19103452 15.04522837 -22.55322229 14.8473932 -25 14 C-23.68 13.34 -22.36 12.68 -21 12 C-22.90401138 10.09598862 -24.33425686 9.06479561 -27.046875 8.80078125 C-29.03233273 8.8113422 -31.0169914 8.90084957 -33 9 C-29.46435316 7.00621419 -25.85633477 6.07158982 -21.9375 5.0625 C-20.59755063 4.71525104 -19.2577077 4.36759115 -17.91796875 4.01953125 C-16.92676025 3.76357178 -16.92676025 3.76357178 -15.91552734 3.50244141 C-12.3199387 2.55932116 -8.74677292 1.53392926 -5.171875 0.515625 C-3 0 -3 0 0 0 Z " fill="#D89C7E" transform="translate(413,319)"/>
<path d="M0 0 C1.65 0 3.3 0 5 0 C5.12375 0.639375 5.2475 1.27875 5.375 1.9375 C5.684375 2.9584375 5.684375 2.9584375 6 4 C6.66 4.33 7.32 4.66 8 5 C8.55353075 20.92938497 8.55353075 20.92938497 5 27 C4.01 26.67 3.02 26.34 2 26 C1.01 26.33 0.02 26.66 -1 27 C-2.13323331 23.36255881 -1.51345745 21.27644404 -0.48046875 17.63671875 C0.57011247 11.87133402 0.13695925 5.84359452 0 0 Z " fill="#482F16" transform="translate(437,290)"/>
<path d="M0 0 C1.21574166 2.43148333 0.96497901 3.51820532 0.625 6.1875 C0.52574219 6.99445313 0.42648437 7.80140625 0.32421875 8.6328125 C0.05302317 10.61286695 -0.25080254 12.58841607 -0.5625 14.5625 C-1.67708454 23.31994994 -0.17909919 30.49113651 2 39 C-1.44342649 37.27828676 -1.96154687 33.65895249 -3.171875 30.16796875 C-5.4545348 21.43571828 -3.9114519 12.66979967 -2 4 C-4.97 3.505 -4.97 3.505 -8 3 C-8.144375 3.763125 -8.28875 4.52625 -8.4375 5.3125 C-9 8 -9 8 -10 11 C-10.66 11 -11.32 11 -12 11 C-11.67 19.91 -11.34 28.82 -11 38 C-14.20023045 33.19965432 -13.36880406 28.01950571 -13.375 22.375 C-13.39949219 21.22386719 -13.42398437 20.07273438 -13.44921875 18.88671875 C-13.47311333 11.90153591 -12.94119334 5.95092888 -9 0 C-5.88173308 -1.55913346 -3.32926126 -0.66585225 0 0 Z " fill="#9A9285" transform="translate(320,127)"/>
<path d="M0 0 C2.76734813 1.3283271 5.31294308 2.81254083 7.875 4.5 C11.14349586 6.574944 14.24370987 7.96702021 18 9 C18 7.02 18 5.04 18 3 C18.53367187 3.18175781 19.06734375 3.36351562 19.6171875 3.55078125 C25.37591783 5.4936055 31.16993922 7.28384432 37 9 C33.34811918 10.07174763 30.73567172 9.76411467 27 9 C26.34 10.32 25.68 11.64 25 13 C26.32 14.32 27.64 15.64 29 17 C17.91484249 15.67112679 7.48212154 9.11552865 0 1 C0 0.67 0 0.34 0 0 Z " fill="#593C23" transform="translate(268,384)"/>
<path d="M0 0 C-0.33 0.66 -0.66 1.32 -1 2 C-3.52630386 2.81532068 -5.98861836 3.50172821 -8.5625 4.125 C-9.59987305 4.39763672 -9.59987305 4.39763672 -10.65820312 4.67578125 C-15.55272652 5.88914865 -19.96046893 6.17006292 -25 6 C-25 5.34 -25 4.68 -25 4 C-26.175625 4.0928125 -26.175625 4.0928125 -27.375 4.1875 C-28.24125 4.125625 -29.1075 4.06375 -30 4 C-30.66 3.01 -31.32 2.02 -32 1 C-20.65424948 -1.74652174 -11.28806507 -3.34461187 0 0 Z " fill="#422B12" transform="translate(382,396)"/>
<path d="M0 0 C0.99 0.33 1.98 0.66 3 1 C4.1328125 3.3984375 4.1328125 3.3984375 5.125 6.375 C5.45757812 7.35210937 5.79015625 8.32921875 6.1328125 9.3359375 C6.41898437 10.21507812 6.70515625 11.09421875 7 12 C7.33 12.99 7.66 13.98 8 15 C8.14575853 16.89205785 8.22084599 18.79006001 8.25 20.6875 C8.28867187 22.17830078 8.28867187 22.17830078 8.328125 23.69921875 C8 27 8 27 5 35 C11.6 35.33 18.2 35.66 25 36 C25 36.33 25 36.66 25 37 C17.74 37 10.48 37 3 37 C3 31.06 3 25.12 3 19 C2.34 18.67 1.68 18.34 1 18 C1.66 16.35 2.32 14.7 3 13 C3.66 13 4.32 13 5 13 C4.54625 11.96875 4.0925 10.9375 3.625 9.875 C2.23292639 6.63562492 1.06619122 3.36260307 0 0 Z " fill="#483720" transform="translate(325,174)"/>
<path d="M0 0 C10.12415227 0.95146218 19.34227707 4.07463136 26.72265625 11.25 C26.06265625 11.58 25.40265625 11.91 24.72265625 12.25 C23.73265625 11.92 22.74265625 11.59 21.72265625 11.25 C21.72265625 10.59 21.72265625 9.93 21.72265625 9.25 C21.16578125 9.06824219 20.60890625 8.88648438 20.03515625 8.69921875 C16.13523638 7.41461676 12.2845438 6.09016486 8.47265625 4.5625 C5.19682478 3.41595899 3.12491177 2.93103854 -0.27734375 3.25 C-0.60734375 4.9 -0.93734375 6.55 -1.27734375 8.25 C1.36265625 8.25 4.00265625 8.25 6.72265625 8.25 C7.05265625 9.24 7.38265625 10.23 7.72265625 11.25 C0.56670279 10.54843593 -6.29589556 8.94214979 -13.27734375 7.25 C-13.27734375 6.59 -13.27734375 5.93 -13.27734375 5.25 C-11.29166667 4.82682292 -9.30598958 4.40364583 -7.3203125 3.98046875 C-5.1863977 3.39549409 -5.1863977 3.39549409 -3.82421875 1.67578125 C-2.27734375 0.25 -2.27734375 0.25 0 0 Z " fill="#5D3E20" transform="translate(388.27734375,214.75)"/>
<path d="M0 0 C5.30479485 1.19087231 10.3211054 2.77365084 14 7 C14.4375 10.8125 14.4375 10.8125 14 14 C8.14539507 13.69976385 3.20524612 11.00162367 -1 7 C-1.76171875 4.296875 -1.76171875 4.296875 -2 2 C-1.34 2 -0.68 2 0 2 C0 1.34 0 0.68 0 0 Z " fill="#492E15" transform="translate(272,379)"/>
<path d="M0 0 C1.2065625 0.0309375 1.2065625 0.0309375 2.4375 0.0625 C3.81177749 4.18533246 3.91502967 5.91134521 2.4375 10.0625 C-1.55293104 12.73445528 -6.63475039 16.0625 -11.5625 16.0625 C-11.2325 15.0725 -10.9025 14.0825 -10.5625 13.0625 C-8.9125 13.0625 -7.2625 13.0625 -5.5625 13.0625 C-5.748125 12.464375 -5.93375 11.86625 -6.125 11.25 C-6.5625 9.0625 -6.5625 9.0625 -5.5625 6.0625 C-6.2225 5.7325 -6.8825 5.4025 -7.5625 5.0625 C-7.8925 6.0525 -8.2225 7.0425 -8.5625 8.0625 C-11.27129335 9.41689668 -13.57183268 9.12751451 -16.5625 9.0625 C-13.0306753 6.7079502 -9.39290236 4.56631821 -5.7421875 2.40234375 C-1.90977879 0.04657997 -1.90977879 0.04657997 0 0 Z " fill="#4C3219" transform="translate(444.5625,337.9375)"/>
<path d="M0 0 C4.78631148 5.43899032 5.34786199 12.24158524 5.6875 19.1875 C5.72584961 19.9307251 5.76419922 20.6739502 5.80371094 21.43969727 C6.35307721 34.04656546 5.20436411 47.19345384 -2 58 C-2.99 58.66 -3.98 59.32 -5 60 C-3 54 -1 48 1 42 C1.66 42 2.32 42 3 42 C3.08824695 37.72930036 3.14080654 33.45884011 3.1875 29.1875 C3.21263672 27.99189453 3.23777344 26.79628906 3.26367188 25.56445312 C3.31966471 18.71466338 2.78355583 12.82527543 0.6496582 6.2980957 C0 4 0 4 0 0 Z " fill="#AAA097" transform="translate(463,275)"/>
<path d="M0 0 C0.33 0.99 0.66 1.98 1 3 C1.66 3 2.32 3 3 3 C3.19672365 4.72814161 3.38196799 6.45759197 3.5625 8.1875 C3.71912109 9.63189453 3.71912109 9.63189453 3.87890625 11.10546875 C3.99758751 13.94233377 3.67765639 16.25423671 3 19 C3.54785156 18.96519531 4.09570312 18.93039063 4.66015625 18.89453125 C14.18321195 18.56935374 24.24146341 20.16292683 33 24 C30.08258594 24.88734283 28.01423514 25.03297323 25.0234375 24.4765625 C24.26933594 24.3425 23.51523437 24.2084375 22.73828125 24.0703125 C21.56845703 23.84988281 21.56845703 23.84988281 20.375 23.625 C13.90709262 22.43499319 7.57577066 21.65757707 1 21 C0.67 14.07 0.34 7.14 0 0 Z " fill="#978C7F" transform="translate(359,191)"/>
<path d="M0 0 C-4.0509247 2.31635322 -7.61143715 4.16129612 -12.3125 4.5625 C-16.27214583 5.03228849 -16.51823824 5.29262353 -19 8 C-19.969375 8.12375 -20.93875 8.2475 -21.9375 8.375 C-25.946434 9.1931498 -26.50505531 10.84462877 -29 14 C-30.98279392 15.18725339 -32.99199113 16.15569658 -35.09765625 17.10546875 C-37.25228642 18.06136561 -37.25228642 18.06136561 -40 20 C-37.78449083 12.72046986 -31.11822978 9.40106177 -24.8359375 5.73828125 C-19.96729953 3.36035575 -14.78855404 2.03757843 -9.5625 0.6875 C-8.85134033 0.50348633 -8.14018066 0.31947266 -7.4074707 0.12988281 C-2.24858604 -1.12429302 -2.24858604 -1.12429302 0 0 Z " fill="#968D71" transform="translate(290,215)"/>
<path d="M0 0 C5.14581303 1.36212698 8.17033884 4.65178168 11 9 C12.8414855 13.42202874 13.22231898 17.10637005 13.125 21.875 C13.10695313 23.02742188 13.08890625 24.17984375 13.0703125 25.3671875 C13.04710937 26.23601562 13.02390625 27.10484375 13 28 C12.67 28 12.34 28 12 28 C12 24.37 12 20.74 12 17 C11.01 16.67 10.02 16.34 9 16 C9 14.68 9 13.36 9 12 C8.34 12 7.68 12 7 12 C6.67 13.32 6.34 14.64 6 16 C6 14.68 6 13.36 6 12 C5.0925 11.9175 4.185 11.835 3.25 11.75 C-0.40077839 10.90751268 -1.63384583 9.82118382 -4 7 C-1.03824877 7.61277612 0.38058783 8.25372522 3 10 C3.33 8.02 3.66 6.04 4 4 C3.01 3.67 2.02 3.34 1 3 C0.67 2.01 0.34 1.02 0 0 Z " fill="#744E30" transform="translate(433,278)"/>
<path d="M0 0 C1.98 0.99 1.98 0.99 4 2 C3.34 2 2.68 2 2 2 C2 16.19 2 30.38 2 45 C1.34 45 0.68 45 0 45 C0 30.15 0 15.3 0 0 Z " fill="#7B5237" transform="translate(412,253)"/>
<path d="M0 0 C0 2.31 0 4.62 0 7 C-1.4117783 7.53394179 -2.82970244 8.05165104 -4.25 8.5625 C-5.03890625 8.85253906 -5.8278125 9.14257812 -6.640625 9.44140625 C-9.19103452 10.04522837 -10.55322229 9.8473932 -13 9 C-12 7 -11 5 -10 3 C-9.01 3 -8.02 3 -7 3 C-7 2.34 -7 1.68 -7 1 C-4.50935112 0.31292445 -2.62113708 0 0 0 Z " fill="#E7A788" transform="translate(413,319)"/>
<path d="M0 0 C1.8125 0.3125 1.8125 0.3125 4 1 C5.66519519 1.34060811 7.33157466 1.67558396 9 2 C9 2.66 9 3.32 9 4 C7.35 4.66 5.7 5.32 4 6 C4 6.66 4 7.32 4 8 C1.69 8.33 -0.62 8.66 -3 9 C-3.33 7.02 -3.66 5.04 -4 3 C-3.34 2.67 -2.68 2.34 -2 2 C-1.34 1.34 -0.68 0.68 0 0 Z " fill="#462F18" transform="translate(391,384)"/>
<path d="M0 0 C0.33 0 0.66 0 1 0 C1.03738281 0.83402344 1.07476562 1.66804687 1.11328125 2.52734375 C1.60255116 10.90249339 3.04028915 17.45962341 6.34375 25.11328125 C7.03984375 26.72783203 7.03984375 26.72783203 7.75 28.375 C8.19859375 29.37273437 8.6471875 30.37046875 9.109375 31.3984375 C10 34 10 34 9 37 C3.17955522 27.2299677 -0.19628086 19.20294522 -0.0625 7.6875 C-0.05798828 6.94693359 -0.05347656 6.20636719 -0.04882812 5.44335938 C-0.03712175 3.62887101 -0.01918898 1.81442466 0 0 Z " fill="#9E9387" transform="translate(338,153)"/>
<path d="M0 0 C2.5216376 0.11503269 5.0418119 0.24174777 7.5625 0.375 C8.61920898 0.42140625 8.61920898 0.42140625 9.69726562 0.46875 C13.07355907 0.65545747 15.88150187 0.9620806 19.125 2 C24.98815251 3.84287276 31.35181541 3.47754273 37.4375 3.625 C38.74138672 3.66367187 40.04527344 3.70234375 41.38867188 3.7421875 C44.59230999 3.83606701 47.79594832 3.92175154 51 4 C51 4.33 51 4.66 51 5 C8.77729258 5.85152838 8.77729258 5.85152838 0 0 Z " fill="#AEA598" transform="translate(297,401)"/>
<path d="M0 0 C0.33 0 0.66 0 1 0 C1.6468142 4.02067618 2.29227555 8.04156842 2.9375 12.0625 C3.11990234 13.19623047 3.30230469 14.32996094 3.49023438 15.49804688 C4.37137689 20.99317203 5.23982848 26.48675602 6 32 C1.22004457 28.07695535 0.84893301 21.81283295 0 16 C-0.31640951 10.66658219 -0.18494934 5.33613107 0 0 Z " fill="#9D9080" transform="translate(251,334)"/>
<path d="M0 0 C0.33 0.99 0.66 1.98 1 3 C-0.53907947 4.53907947 -2.12227543 4.32362017 -4.26171875 4.53515625 C-5.13376953 4.62216797 -6.00582031 4.70917969 -6.90429688 4.79882812 C-8.28198242 4.9293457 -8.28198242 4.9293457 -9.6875 5.0625 C-10.58662109 5.15337891 -11.48574219 5.24425781 -12.41210938 5.33789062 C-16.95986761 5.78165574 -21.42420881 6.11382565 -26 6 C-26 5.34 -26 4.68 -26 4 C-17.42 2.68 -8.84 1.36 0 0 Z " fill="#998A78" transform="translate(317,209)"/>
<path d="M0 0 C3 1 3 1 4 3 C4.55698376 10.46572464 4.73838056 18.27706871 1 25 C0.01 25.66 -0.98 26.32 -2 27 C-1.67515625 26.00033203 -1.67515625 26.00033203 -1.34375 24.98046875 C1.23048538 16.45927293 1.94006979 8.73031404 0 0 Z " fill="#8E8276" transform="translate(434,289)"/>
<path d="M0 0 C0.66 0.66 1.32 1.32 2 2 C4.10820797 1.6814823 4.10820797 1.6814823 6 1 C6.33 1.99 6.66 2.98 7 4 C7.66 4 8.32 4 9 4 C9.33 5.65 9.66 7.3 10 9 C5.00088076 8.52389341 2.02167317 6.96837781 -2 4 C-1.34 2.68 -0.68 1.36 0 0 Z " fill="#382812" transform="translate(276,384)"/>
<path d="M0 0 C-11.47343513 5.61876636 -20.21667906 7.35564108 -33 7 C-29.79804831 5.13156702 -27.24385115 4.70423585 -23.5625 4.5 C-19.58716177 4.27884071 -16.64756278 3.58464418 -13 2 C-11.29977474 1.41344813 -9.59121952 0.85045872 -7.875 0.3125 C-6.60269531 -0.09548828 -6.60269531 -0.09548828 -5.3046875 -0.51171875 C-3 -1 -3 -1 0 0 Z " fill="#613717" transform="translate(392,253)"/>
<path d="M0 0 C8.92297722 0.77591106 16.48140068 3.82448485 23 10 C22.01 10.495 22.01 10.495 21 11 C20.01 10.67 19.02 10.34 18 10 C18 9.34 18 8.68 18 8 C17.443125 7.81824219 16.88625 7.63648438 16.3125 7.44921875 C5.9851632 4.04747774 5.9851632 4.04747774 1 2 C0.67 1.34 0.34 0.68 0 0 Z " fill="#847C6B" transform="translate(392,216)"/>
<path d="M0 0 C0.66 0 1.32 0 2 0 C1.96519531 0.93199219 1.93039062 1.86398438 1.89453125 2.82421875 C1.70659323 11.67520449 2.56701622 19.41214654 5 28 C1.56371161 26.28185581 1.0463209 22.67535059 -0.17578125 19.1953125 C-1.79593483 12.91433798 -1.81701833 6.24877035 0 0 Z " fill="#A49A8C" transform="translate(317,138)"/>
<path d="M0 0 C-3.47325181 1.1577506 -6.36067448 1.06866652 -10 1 C-10.04125 1.9075 -10.0825 2.815 -10.125 3.75 C-10.91666186 9.65701542 -14.22001975 14.82260559 -17 20 C-17.33 20 -17.66 20 -18 20 C-18 18.35 -18 16.7 -18 15 C-17.34 15 -16.68 15 -16 15 C-16 13.35 -16 11.7 -16 10 C-15.34 10 -14.68 10 -14 10 C-13.86722656 9.36191406 -13.73445313 8.72382813 -13.59765625 8.06640625 C-13.42105469 7.24011719 -13.24445313 6.41382813 -13.0625 5.5625 C-12.88847656 4.73878906 -12.71445312 3.91507812 -12.53515625 3.06640625 C-12 1 -12 1 -11 0 C-3.7826685 -1.36176066 -3.7826685 -1.36176066 0 0 Z " fill="#A49991" transform="translate(431,355)"/>
<path d="M0 0 C3.18775058 0.3099766 6.3751491 0.62344236 9.5625 0.9375 C10.90538086 1.06801758 10.90538086 1.06801758 12.27539062 1.20117188 C17.20552409 1.68876749 22.10211759 2.2542319 27 3 C27 3.33 27 3.66 27 4 C23.75001888 4.02909763 20.50007143 4.04683161 17.25 4.0625 C16.32960938 4.07087891 15.40921875 4.07925781 14.4609375 4.08789062 C13.57148438 4.09111328 12.68203125 4.09433594 11.765625 4.09765625 C10.94868164 4.10289307 10.13173828 4.10812988 9.29003906 4.11352539 C7.06031865 4.00299021 5.13866245 3.62055567 3 3 C3 2.34 3 1.68 3 1 C2.01 0.67 1.02 0.34 0 0 Z " fill="#BC896B" transform="translate(289,266)"/>
<path d="M0 0 C4.455 0.99 4.455 0.99 9 2 C7.02 2.99 7.02 2.99 5 4 C3.70079254 7.54588501 3.70079254 7.54588501 3 11 C2.67 10.01 2.34 9.02 2 8 C1.34 8 0.68 8 0 8 C0 5.36 0 2.72 0 0 Z " fill="#EAAB8E" transform="translate(262,350)"/>
<path d="M0 0 C2.31 0.33 4.62 0.66 7 1 C7.33 1.99 7.66 2.98 8 4 C7.34 4 6.68 4 6 4 C5.67 5.32 5.34 6.64 5 8 C4.01 7.67 3.02 7.34 2 7 C1.67 6.01 1.34 5.02 1 4 C-0.32 4 -1.64 4 -3 4 C-3 3.34 -3 2.68 -3 2 C-2.01 2 -1.02 2 0 2 C0 1.34 0 0.68 0 0 Z " fill="#3C2810" transform="translate(446,262)"/>
<path d="M0 0 C-8.14973727 4.54504578 -16.5940912 7.27910709 -26 7 C-26 6.67 -26 6.34 -26 6 C-25.443125 5.89042969 -24.88625 5.78085937 -24.3125 5.66796875 C-18.97482612 4.55895881 -14.05962824 3.00677238 -9 1 C-3.37168142 -1.12389381 -3.37168142 -1.12389381 0 0 Z " fill="#8F8779" transform="translate(387,397)"/>
<path d="M0 0 C2.28054156 1.69201471 3.77433633 3.11359312 4.48828125 5.91796875 C5.16143429 11.59455785 5.08038887 17.2923899 5 23 C7.97 23 10.94 23 14 23 C14 23.33 14 23.66 14 24 C10.7 24 7.4 24 4 24 C3.87882812 23.02160156 3.75765625 22.04320312 3.6328125 21.03515625 C2.73279307 13.9373169 1.70876554 6.95711683 0 0 Z " fill="#A89B8F" transform="translate(417,229)"/>
<path d="M0 0 C0.99 0.33 1.98 0.66 3 1 C4.1328125 3.3984375 4.1328125 3.3984375 5.125 6.375 C5.45757812 7.35210937 5.79015625 8.32921875 6.1328125 9.3359375 C6.41898437 10.21507812 6.70515625 11.09421875 7 12 C7.33 12.99 7.66 13.98 8 15 C8.068991 17.06145107 8.08467727 19.12501401 8.0625 21.1875 C8.05347656 22.27417969 8.04445313 23.36085937 8.03515625 24.48046875 C8.02355469 25.31191406 8.01195312 26.14335937 8 27 C7.67 27 7.34 27 7 27 C6.82984375 25.78183594 6.6596875 24.56367188 6.484375 23.30859375 C6.24033405 21.68478283 5.99550011 20.06109095 5.75 18.4375 C5.58564453 17.23770508 5.58564453 17.23770508 5.41796875 16.01367188 C4.56066027 10.48628825 2.95223894 6.73944144 0 2 C0 1.34 0 0.68 0 0 Z " fill="#BBB5A7" transform="translate(325,174)"/>
<path d="M0 0 C3.91841827 1.30613942 6.32640809 2.83129848 9 6 C9 6.66 9 7.32 9 8 C8.01 8 7.02 8 6 8 C5.67 9.32 5.34 10.64 5 12 C0.68607774 11.5206753 -1.16569547 10.2542015 -4 7 C-1.03824877 7.61277612 0.38058783 8.25372522 3 10 C3.33 8.02 3.66 6.04 4 4 C3.01 3.67 2.02 3.34 1 3 C0.67 2.01 0.34 1.02 0 0 Z " fill="#785A43" transform="translate(433,278)"/>
<path d="M0 0 C5.23951837 -0.02147344 10.39261161 0.50946776 15.546875 1.42578125 C15.546875 1.75578125 15.546875 2.08578125 15.546875 2.42578125 C10.266875 2.09578125 4.986875 1.76578125 -0.453125 1.42578125 C-1.113125 3.40578125 -1.773125 5.38578125 -2.453125 7.42578125 C-5.16191835 8.78017793 -7.46245768 8.49079576 -10.453125 8.42578125 C-9.586875 8.11640625 -9.586875 8.11640625 -8.703125 7.80078125 C-6.15279227 6.51521857 -6.15279227 6.51521857 -4.890625 3.30078125 C-2.453125 0.42578125 -2.453125 0.42578125 0 0 Z " fill="#BD886A" transform="translate(359.453125,218.57421875)"/>
<path d="M0 0 C4.39577315 2.93051544 5.27581583 7.04044283 7.0625 11.875 C7.80419312 14.16785238 7.80419312 14.16785238 10 15 C10.59355614 17.64860427 10.74209269 20.29197322 11 23 C0 6.5 0 6.5 0 0 Z " fill="#ACA59C" transform="translate(309,165)"/>
<path d="M0 0 C0.763125 0.20625 1.52625 0.4125 2.3125 0.625 C1.9825 1.945 1.6525 3.265 1.3125 4.625 C0.6525 4.625 -0.0075 4.625 -0.6875 4.625 C-0.6875 5.615 -0.6875 6.605 -0.6875 7.625 C-2.0075 7.625 -3.3275 7.625 -4.6875 7.625 C-4.3575 6.305 -4.0275 4.985 -3.6875 3.625 C-4.3475 3.625 -5.0075 3.625 -5.6875 3.625 C-5.6875 2.965 -5.6875 2.305 -5.6875 1.625 C-2.6875 -0.375 -2.6875 -0.375 0 0 Z " fill="#44331E" transform="translate(410.6875,371.375)"/>
<path d="M0 0 C0 3.52232517 -0.56731481 4.05751328 -2.8125 6.625 C-3.59560547 7.54152344 -3.59560547 7.54152344 -4.39453125 8.4765625 C-6 10 -6 10 -9 11 C-7.25 4.25 -7.25 4.25 -5 2 C-3.35008418 1.29289322 -1.68437744 0.62056011 0 0 Z " fill="#8E8175" transform="translate(457,335)"/>
<path d="M0 0 C0.66 0 1.32 0 2 0 C1.57058857 6.01175995 0.43663195 10.95170617 -3 16 C-3.99 16.66 -4.98 17.32 -6 18 C-4 12 -2 6 0 0 Z " fill="#918574" transform="translate(464,317)"/>
<path d="M0 0 C3.55038751 1.70768079 6.79398379 3.74198184 10.09765625 5.87890625 C12.10493004 7.15121193 12.10493004 7.15121193 15 8 C16.1875 10.0625 16.1875 10.0625 17 12 C9.82427584 10.20606896 4.20811103 6.01903188 0 0 Z " fill="#9C8E83" transform="translate(268,384)"/>
<path d="M0 0 C2.44989101 3.74235319 2.23086143 7.44225419 2.125 11.75 C2.11597656 12.44738281 2.10695313 13.14476562 2.09765625 13.86328125 C2.07419888 15.57566958 2.03833104 17.28788004 2 19 C-1.95558243 15.04441757 -1.11696978 9.49057736 -1.1328125 4.20703125 C-1 2 -1 2 0 0 Z " fill="#3B2912" transform="translate(341,155)"/>
<path d="M0 0 C0.625 1.75 0.625 1.75 1 4 C0.34 5.32 -0.32 6.64 -1 8 C5.6 8.33 12.2 8.66 19 9 C19 9.33 19 9.66 19 10 C11.74 10 4.48 10 -3 10 C-2.67 7.69 -2.34 5.38 -2 3 C-1.34 3 -0.68 3 0 3 C0 2.01 0 1.02 0 0 Z " fill="#7B715B" transform="translate(331,201)"/>
<path d="M0 0 C1 3 1 3 1 5 C0.01 5.495 0.01 5.495 -1 6 C-1.33 13.26 -1.66 20.52 -2 28 C-2.33 28 -2.66 28 -3 28 C-3.08694042 23.89596637 -3.14037149 19.79216871 -3.1875 15.6875 C-3.21263672 14.52025391 -3.23777344 13.35300781 -3.26367188 12.15039062 C-3.27817383 10.47299805 -3.27817383 10.47299805 -3.29296875 8.76171875 C-3.3086792 7.73006592 -3.32438965 6.69841309 -3.34057617 5.63549805 C-3 3 -3 3 -1.48168945 1.13989258 C-0.74825317 0.57564575 -0.74825317 0.57564575 0 0 Z " fill="#4D3D2B" transform="translate(253,232)"/>
<path d="M0 0 C-6.40848889 3.27876176 -12.90678764 4.0933488 -20 5 C-20 4.34 -20 3.68 -20 3 C-14.80098781 0.97816193 -5.25810645 -2.62905323 0 0 Z " fill="#70462A" transform="translate(399,260)"/>
<path d="M0 0 C-3.5560259 2.13361554 -6.9328716 2.43901677 -11 3 C-11.969375 3.350625 -12.93875 3.70125 -13.9375 4.0625 C-17.80814038 5.24738991 -20.96389188 5.13917614 -25 5 C-25 4.67 -25 4.34 -25 4 C-16.68197833 1.79572426 -8.67130006 -0.27097813 0 0 Z " fill="#906042" transform="translate(384,326)"/>
<path d="M0 0 C5.94 1.65 11.88 3.3 18 5 C15 7 15 7 13 7 C13 6.34 13 5.68 13 5 C11.02 5.33 9.04 5.66 7 6 C7 5.34 7 4.68 7 4 C4.69 3.34 2.38 2.68 0 2 C0 1.34 0 0.68 0 0 Z " fill="#5F3C1D" transform="translate(260,329)"/>
<path d="M0 0 C2.2553072 2.86556679 4.07217035 5.76277574 5.75 9 C6.19859375 9.845625 6.6471875 10.69125 7.109375 11.5625 C8.09097144 14.24897447 7.99857603 15.36960461 7 18 C5.82333996 15.75474054 4.6585926 13.50455858 3.5 11.25 C3.16613281 10.61578125 2.83226562 9.9815625 2.48828125 9.328125 C0.72824467 5.87989007 0 3.95159931 0 0 Z " fill="#B8B3A5" transform="translate(353,176)"/>
<path d="M0 0 C-1 3 -1 3 -3.43359375 4.38671875 C-4.42488281 4.81597656 -5.41617187 5.24523437 -6.4375 5.6875 C-7.42621094 6.12449219 -8.41492188 6.56148438 -9.43359375 7.01171875 C-12 8 -12 8 -14 8 C-13.67 7.01 -13.34 6.02 -13 5 C-11.35 5 -9.7 5 -8 5 C-8 4.34 -8 3.68 -8 3 C-2.25 0 -2.25 0 0 0 Z " fill="#8F7A6D" transform="translate(447,346)"/>
<path d="M0 0 C1.258125 -0.020625 2.51625 -0.04125 3.8125 -0.0625 C4.52019531 -0.07410156 5.22789062 -0.08570313 5.95703125 -0.09765625 C8 0 8 0 11 1 C11 1.66 11 2.32 11 3 C7.30458414 3.95024979 4.69541586 3.95024979 1 3 C0.67 2.01 0.34 1.02 0 0 Z " fill="#F2BC9F" transform="translate(377,223)"/>
<path d="M0 0 C1.670625 0.061875 1.670625 0.061875 3.375 0.125 C3.705 0.785 4.035 1.445 4.375 2.125 C1.405 2.785 -1.565 3.445 -4.625 4.125 C-4.955 5.775 -5.285 7.425 -5.625 9.125 C-5.955 9.125 -6.285 9.125 -6.625 9.125 C-5.63269231 0.19423077 -5.63269231 0.19423077 0 0 Z " fill="#B2ACA0" transform="translate(345.625,143.875)"/>
<path d="M0 0 C2.60578866 0.08695958 5.2081279 0.19381408 7.8125 0.3125 C8.55048828 0.33505859 9.28847656 0.35761719 10.04882812 0.38085938 C15.54974762 0.6546608 15.54974762 0.6546608 18.01171875 2.54296875 C18.50091797 3.26419922 18.50091797 3.26419922 19 4 C12.60794144 3.27637073 6.31972924 2.19656638 0 1 C0 0.67 0 0.34 0 0 Z " fill="#D18E6B" transform="translate(367,241)"/>
<path d="M0 0 C-6.27087737 3.71607548 -10.75460274 4.53449652 -18 4 C-18 3.67 -18 3.34 -18 3 C-15.37700199 2.30391966 -12.7520793 1.61784618 -10.125 0.9375 C-9.00544922 0.63875977 -9.00544922 0.63875977 -7.86328125 0.33398438 C-2.2265625 -1.11328125 -2.2265625 -1.11328125 0 0 Z " fill="#A09389" transform="translate(290,215)"/>
<path d="M0 0 C2.97 0 5.94 0 9 0 C9.33 0.66 9.66 1.32 10 2 C11.64363134 2.72159424 13.31050386 3.39351421 15 4 C11.21180727 5.43410153 8.93478721 4.51009497 5.25 3.0625 C3.77273438 2.49208984 3.77273438 2.49208984 2.265625 1.91015625 C1.51796875 1.60980469 0.7703125 1.30945313 0 1 C0 0.67 0 0.34 0 0 Z " fill="#7B5032" transform="translate(265,350)"/>
<path d="M0 0 C0.33 0 0.66 0 1 0 C1.63157895 8.05263158 1.63157895 8.05263158 -0.875 11.8125 C-1.57625 12.534375 -2.2775 13.25625 -3 14 C-3.70885894 15.31138904 -4.39456452 16.63777017 -5 18 C-5.33 17.34 -5.66 16.68 -6 16 C-5.0390625 13.828125 -5.0390625 13.828125 -3.625 11.25 C-1.64666099 7.46868721 -0.34056135 4.31377706 0 0 Z " fill="#774F31" transform="translate(458,311)"/>
<path d="M0 0 C-0.99 0.495 -0.99 0.495 -2 1 C-2 1.66 -2 2.32 -2 3 C-5.3 3 -8.6 3 -12 3 C-12 2.34 -12 1.68 -12 1 C-7.9472484 0.01751476 -4.16138263 -0.08159574 0 0 Z " fill="#432A0D" transform="translate(350,313)"/>
<path d="M0 0 C0.99 0 1.98 0 3 0 C3 5.28 3 10.56 3 16 C2.67 16 2.34 16 2 16 C1.34 10.72 0.68 5.44 0 0 Z " fill="#3D2A13" transform="translate(321,184)"/>
<path d="M0 0 C2.64 0 5.28 0 8 0 C8 0.66 8 1.32 8 2 C9.65 2 11.3 2 13 2 C13 2.33 13 2.66 13 3 C9.7 3.33 6.4 3.66 3 4 C3.33 3.34 3.66 2.68 4 2 C2.68 1.34 1.36 0.68 0 0 Z " fill="#83583D" transform="translate(306,394)"/>
<path d="M0 0 C0.66 0.33 1.32 0.66 2 1 C0.21825212 3.30142435 -1.16304165 4.80034391 -4.046875 5.48828125 C-6.0246611 5.72323102 -8.01271872 5.86751458 -10 6 C-8.0331974 4.0331974 -6.4555341 3.0628363 -4 1.8125 C-3.29875 1.44769531 -2.5975 1.08289063 -1.875 0.70703125 C-1.25625 0.47371094 -0.6375 0.24039062 0 0 Z " fill="#C1886C" transform="translate(433,327)"/>
<path d="M0 0 C4.08511822 4.9731874 4.12259508 8.62505604 4 15 C3.67 15 3.34 15 3 15 C2.49363393 13.25183142 1.99515381 11.50137737 1.5 9.75 C1.2215625 8.77546875 0.943125 7.8009375 0.65625 6.796875 C0 4 0 4 0 0 Z " fill="#84786D" transform="translate(463,275)"/>
<path d="M0 0 C2 0.75 2 0.75 4 3.75 C2.35 4.08 0.7 4.41 -1 4.75 C-1.33 3.76 -1.66 2.77 -2 1.75 C-2.66 1.42 -3.32 1.09 -4 0.75 C-2 -0.25 -2 -0.25 0 0 Z " fill="#3F2710" transform="translate(277,220.25)"/>
<path d="M0 0 C3.72940389 1.24313463 4.84656811 2.76985216 7 6 C6.67 6.99 6.34 7.98 6 9 C4.99406757 7.8803014 3.9954151 6.7540588 3 5.625 C2.443125 4.99851562 1.88625 4.37203125 1.3125 3.7265625 C0 2 0 2 0 0 Z " fill="#9C927B" transform="translate(261,375)"/>
<path d="M0 0 C0 0.66 0 1.32 0 2 C-0.99 2 -1.98 2 -3 2 C-3.33 2.99 -3.66 3.98 -4 5 C-6.70879335 6.35439668 -9.00933268 6.06501451 -12 6 C-3 0 -3 0 0 0 Z " fill="#684024" transform="translate(440,341)"/>
<path d="M0 0 C4.95696581 1.23924145 7.11658466 2.78577758 10 7 C8.35 6.67 6.7 6.34 5 6 C5 5.34 5 4.68 5 4 C4.360625 3.896875 3.72125 3.79375 3.0625 3.6875 C2.381875 3.460625 1.70125 3.23375 1 3 C0.67 2.01 0.34 1.02 0 0 Z " fill="#867066" transform="translate(405,220)"/>
<path d="M0 0 C4.455 0.99 4.455 0.99 9 2 C9 2.33 9 2.66 9 3 C6.69 3 4.38 3 2 3 C1.67 4.65 1.34 6.3 1 8 C0.67 8 0.34 8 0 8 C0 5.36 0 2.72 0 0 Z " fill="#C59172" transform="translate(262,350)"/>
<path d="M0 0 C3.14958831 3.42346555 3.56179109 6.44262737 4 11 C1 9 1 9 0.48828125 6.8359375 C0.43027344 6.02382812 0.37226563 5.21171875 0.3125 4.375 C0.24675781 3.55773437 0.18101562 2.74046875 0.11328125 1.8984375 C0.07589844 1.27195313 0.03851563 0.64546875 0 0 Z " fill="#7C7368" transform="translate(349,167)"/>
<path d="M0 0 C-1.26691507 0.67408308 -2.53870749 1.33900497 -3.8125 2 C-4.52019531 2.37125 -5.22789062 2.7425 -5.95703125 3.125 C-8 4 -8 4 -11 4 C-11 3.34 -11 2.68 -11 2 C-9.73392393 1.46770674 -8.46189588 0.94955456 -7.1875 0.4375 C-6.47980469 0.14746094 -5.77210938 -0.14257812 -5.04296875 -0.44140625 C-3 -1 -3 -1 0 0 Z " fill="#9A9385" transform="translate(387,397)"/>
<path d="M0 0 C0.66 0 1.32 0 2 0 C2.70173653 4.38585329 3.10834375 8.55790643 3 13 C2.67 13 2.34 13 2 13 C0.54815522 8.46298506 -0.23509196 4.81938524 0 0 Z " fill="#F3B497" transform="translate(445,287)"/>
<path d="M0 0 C-1.65 0.33 -3.3 0.66 -5 1 C-5.33 1.99 -5.66 2.98 -6 4 C-8.64 4 -11.28 4 -14 4 C-14 3.67 -14 3.34 -14 3 C-12.5459375 2.814375 -12.5459375 2.814375 -11.0625 2.625 C-9.5465625 2.315625 -9.5465625 2.315625 -8 2 C-7.67 1.34 -7.34 0.68 -7 0 C-3.86650268 -1.04449911 -3.01031744 -0.93423645 0 0 Z " fill="#A26643" transform="translate(284,249)"/>
<path d="M0 0 C1.46067199 0.45082469 2.91848032 0.91093537 4.375 1.375 C5.18710937 1.63023437 5.99921875 1.88546875 6.8359375 2.1484375 C9 3 9 3 11 5 C6.62886504 4.49172849 3.61004338 3.54826592 0 1 C0 0.67 0 0.34 0 0 Z " fill="#9D978C" transform="translate(286,396)"/>
<path d="M0 0 C0.66 0.99 1.32 1.98 2 3 C0.35 4.32 -1.3 5.64 -3 7 C-3.66 6.67 -4.32 6.34 -5 6 C-3.35 4.02 -1.7 2.04 0 0 Z " fill="#645445" transform="translate(433,315)"/>
<path d="M0 0 C3.3 0 6.6 0 10 0 C10.33 0.99 10.66 1.98 11 3 C9.741875 2.87625 8.48375 2.7525 7.1875 2.625 C6.12595703 2.52058594 6.12595703 2.52058594 5.04296875 2.4140625 C3 2 3 2 0 0 Z " fill="#795336" transform="translate(385,223)"/>
<path d="M0 0 C0.99 0.495 0.99 0.495 2 1 C2 1.66 2 2.32 2 3 C2.99 3.33 3.98 3.66 5 4 C6.1875 6.5625 6.1875 6.5625 7 9 C1.21538462 5.67692308 1.21538462 5.67692308 0.125 2.25 C0.08375 1.5075 0.0425 0.765 0 0 Z " fill="#A49C8A" transform="translate(456,265)"/>
<path d="M0 0 C1.21236328 0.04060547 1.21236328 0.04060547 2.44921875 0.08203125 C3.06410156 0.11683594 3.67898438 0.15164062 4.3125 0.1875 C0.27957255 2.4219598 -3.13717434 2.73246743 -7.6875 3.1875 C-5.26849268 0.20484049 -3.789448 -0.16475861 0 0 Z " fill="#CA8765" transform="translate(302.6875,241.8125)"/>
<path d="M0 0 C-0.33 2.64 -0.66 5.28 -1 8 C-1.33 7.01 -1.66 6.02 -2 5 C-2.66 5 -3.32 5 -4 5 C-4 3.68 -4 2.36 -4 1 C-2 0 -2 0 0 0 Z " fill="#40280D" transform="translate(259,236)"/>
<path d="M0 0 C2.0625 2.25 2.0625 2.25 4 5 C3.75 7.3125 3.75 7.3125 3 9 C1.5 7.875 1.5 7.875 0 6 C-0.1875 2.8125 -0.1875 2.8125 0 0 Z " fill="#50402B" transform="translate(326,178)"/>
<path d="M0 0 C0.66 0 1.32 0 2 0 C2.26218749 3.14624993 2.24754367 4.61837017 0.5 7.3125 C-0.2425 8.1478125 -0.2425 8.1478125 -1 9 C-1.09765625 2.84765625 -1.09765625 2.84765625 -1 1 C-0.67 0.67 -0.34 0.34 0 0 Z " fill="#7A6F62" transform="translate(310,129)"/>
<path d="M0 0 C1.65 0 3.3 0 5 0 C1.8745041 2.64465038 -1.08788267 3.84414715 -5 5 C-4.67 4.01 -4.34 3.02 -4 2 C-2.68 2 -1.36 2 0 2 C0 1.34 0 0.68 0 0 Z " fill="#674022" transform="translate(408,252)"/>
<path d="M0 0 C-1.25 1.5 -1.25 1.5 -3 3 C-4.32 3 -5.64 3 -7 3 C-7 2.01 -7 1.02 -7 0 C-3.86650268 -1.04449911 -3.01031744 -0.93423645 0 0 Z " fill="#827869" transform="translate(274,220)"/>
<path d="M0 0 C5.66153846 1.47692308 5.66153846 1.47692308 7.375 4.125 C7.684375 5.053125 7.684375 5.053125 8 6 C2.33846154 4.52307692 2.33846154 4.52307692 0.625 1.875 C0.41875 1.25625 0.2125 0.6375 0 0 Z " fill="#7F7769" transform="translate(277,390)"/>
<path d="M0 0 C0 0.99 0 1.98 0 3 C-4.22222222 6 -4.22222222 6 -7 6 C-7 5.34 -7 4.68 -7 4 C-4.69 2.68 -2.38 1.36 0 0 Z " fill="#978F88" transform="translate(402,386)"/>
<path d="M0 0 C2.31 0.33 4.62 0.66 7 1 C7.33 2.32 7.66 3.64 8 5 C2.25 3.375 2.25 3.375 0 0 Z " fill="#C99175" transform="translate(282,383)"/>
<path d="M0 0 C2.00841268 0.01421885 4.01537247 0.13420475 6.01953125 0.265625 C3.70658305 2.5785732 2.5404825 2.76143475 -0.60546875 3.390625 C-1.42273438 3.55820312 -2.24 3.72578125 -3.08203125 3.8984375 C-4.02175781 4.08019531 -4.02175781 4.08019531 -4.98046875 4.265625 C-3.72152968 1.74774686 -2.88459378 0.38688832 0 0 Z " fill="#6A4227" transform="translate(393.98046875,349.734375)"/>
<path d="M0 0 C3.63 0 7.26 0 11 0 C11 0.33 11 0.66 11 1 C8.02148438 1.29296875 8.02148438 1.29296875 5.04296875 1.5859375 C2.70011858 1.92665391 2.70011858 1.92665391 0 4 C0 2.68 0 1.36 0 0 Z " fill="#F3B497" transform="translate(422,263)"/>
<path d="M0 0 C3.86107457 2.57404971 3.94319692 4.61020259 5 9 C4.34 9 3.68 9 3 9 C0 3.375 0 3.375 0 0 Z " fill="#988F7C" transform="translate(309,165)"/>
</svg>
